# xmcd CD database file generated by Grip 3.2.0
# 
# Track frame offsets:
#       183
#       75855
#       127158
#       235188
# 
# Disc length: 4144 seconds
# 
# Revision: 2
# Processed by: cddbd v1.5.2PL0 Copyright (c) Steve Scherf et al.
# Submitted via: Grip 3.2.0
# 
DISCID=26102e04
DTITLE=George Gershwin - Rhapsody in Blue (USSR Symphony Orchestra)
DYEAR=1982
DGENRE=Classical
TTITLE0=Rhapsody in blue
TTITLE1=Klavierkonzert Nr. 2 c-moll
TTITLE2=Ein Amerikaner in Paris
TTITLE3=Sergei Rachmaninov - Klavierkonzert Nr. 3 d-moll
EXTD=
EXTT0=
EXTT1=
EXTT2=
EXTT3=
PLAYORDER=
